HIERARCHY
ROOT Hips
{
	OFFSET 0.000000 0.000000 0.000000 
	CHANNELS 6 Xposition Yposition Zposition Zrotation Yrotation Xrotation
	JOINT LeftUpLeg
	{
		OFFSET 1.363060 -1.794630 0.839290 
		CHANNELS 3 Zrotation Yrotation Xrotation
		JOINT LeftLeg
		{
			OFFSET 2.448110 -6.726130 0.000000 
			CHANNELS 3 Zrotation Yrotation Xrotation
			JOINT LeftFoot
			{
				OFFSET 2.562200 -7.039590 0.000000 
				CHANNELS 3 Zrotation Yrotation Xrotation
				JOINT LeftToeBase
				{
					OFFSET 0.157640 -0.433110 2.322550 
					CHANNELS 3 Zrotation Yrotation Xrotation
					End Site
					{
						OFFSET 0.000000 0.000000 0.000000 
					}
				}
			}
		}
	}
	JOINT RightUpLeg
	{
		OFFSET -1.305520 -1.794630 0.839290 
		CHANNELS 3 Zrotation Yrotation Xrotation
		JOINT RightLeg
		{
			OFFSET -2.542530 -6.985550 0.000000 
			CHANNELS 3 Zrotation Yrotation Xrotation
			JOINT RightFoot
			{
				OFFSET -2.568260 -7.056230 0.000000 
				CHANNELS 3 Zrotation Yrotation Xrotation
				JOINT RightToeBase
				{
					OFFSET -0.164730 -0.452590 2.363150 
					CHANNELS 3 Zrotation Yrotation Xrotation
					End Site
					{
						OFFSET 0.000000 0.000000 0.000000 
					}
				}
			}
		}
	}
	JOINT Spine
	{
		OFFSET 0.028270 2.035590 -0.193380 
		CHANNELS 3 Zrotation Yrotation Xrotation
		JOINT Spine1
		{
			OFFSET 0.056720 2.048850 -0.042750 
			CHANNELS 3 Zrotation Yrotation Xrotation
			JOINT Neck1
			{
				OFFSET -0.054170 1.746240 0.172020 
				CHANNELS 3 Zrotation Yrotation Xrotation
				JOINT Head
				{
					OFFSET 0.104070 1.761360 -0.123970 
					CHANNELS 3 Zrotation Yrotation Xrotation
					End Site
					{
						OFFSET 0.000000 0.000000 0.000000 
					}
				}
			}
			JOINT LeftArm
			{
				OFFSET 3.362410 1.200890 -0.311210 
				CHANNELS 3 Zrotation Yrotation Xrotation
				JOINT LeftForeArm
				{
					OFFSET 4.983000 -0.000000 -0.000000 
					CHANNELS 3 Zrotation Yrotation Xrotation
					JOINT LeftHand
					{
						OFFSET 3.483560 -0.000000 -0.000000 
						CHANNELS 3 Zrotation Yrotation Xrotation
						JOINT LeftHandIndex1
						{
							OFFSET 0.715260 -0.000000 -0.000000 
							CHANNELS 3 Zrotation Yrotation Xrotation
							End Site
							{
								OFFSET 0.000000 0.000000 0.000000 
							}
						}
					}
				}
			}
			JOINT RightArm
			{
				OFFSET -3.136600 1.374050 -0.404650 
				CHANNELS 3 Zrotation Yrotation Xrotation
				JOINT RightForeArm
				{
					OFFSET -5.241900 -0.000000 -0.000000 
					CHANNELS 3 Zrotation Yrotation Xrotation
					JOINT RightHand
					{
						OFFSET -3.444170 -0.000000 -0.000000 
						CHANNELS 3 Zrotation Yrotation Xrotation
						JOINT RightHandIndex1
						{
							OFFSET -0.622530 -0.000000 -0.000000 
							CHANNELS 3 Zrotation Yrotation Xrotation
							End Site
							{
								OFFSET 0.000000 0.000000 0.000000 
							}
						}
					}
				}
			}
		}
	}
}
MOTION
Frames: 14
Frame Time: 0.041667
-35.611069 18.022960 15.519657 -2.214781 69.906024 4.499717 -9.459446 -2.056026 -21.837430 -1.364576 9.392115 24.824989 1.540792 1.930595 13.372725 0.000200 0.100200 0.275400 12.670239 11.105616 -2.445112 2.471503 -5.398711 16.598775 4.596963 -15.166449 -7.580439 -0.130000 2.324300 -6.402700 4.085025 0.129641 5.421446 2.040278 0.871578 -1.324750 -1.887799 8.344404 0.690523 -2.070100 4.006600 0.377400 -84.936159 21.906701 27.625284 24.182959 -35.253582 -9.833367 0.529152 -1.580817 -0.699074 -7.125000 0.000000 0.000000 64.488225 -14.986920 50.329134 -23.924057 31.867420 -7.112195 0.768707 0.149353 -1.359234 7.125000 0.000000 0.000000 
-35.613434 18.023166 15.516881 -2.160145 69.743222 4.577977 -9.476429 -1.970412 -21.882110 -1.361969 9.393071 24.827421 1.536065 1.945842 13.383425 0.000300 0.108400 0.297800 12.609926 11.184490 -2.496347 2.468686 -5.414699 16.637196 4.551008 -15.039040 -7.536289 -0.125300 2.281900 -6.285400 4.085733 0.145935 5.424679 2.047614 0.878705 -1.302918 -1.962978 8.372391 0.582425 -2.097500 4.019800 0.339800 -84.945662 21.834688 27.619557 24.172607 -35.241183 -9.829759 0.534404 -1.583037 -0.713594 -7.125000 0.000000 0.000000 64.520483 -14.964863 50.277755 -23.889217 31.830667 -7.088636 0.758675 0.144971 -1.386783 7.125000 0.000000 0.000000 
-35.616005 18.023783 15.514105 -2.160321 69.616509 4.603207 -9.451193 -1.972568 -21.911209 -1.356180 9.400129 24.848624 1.542394 1.928748 13.361515 0.000900 0.192300 0.528300 12.574602 11.246949 -2.552384 2.464060 -5.430870 16.672377 4.544309 -15.010059 -7.457807 -0.130800 2.331300 -6.422200 4.090619 0.159550 5.385998 2.042381 0.885123 -1.359973 -2.027477 8.373286 0.557048 -2.121900 4.020700 0.328400 -84.939775 21.844010 27.640310 24.179302 -35.249993 -9.837743 0.538581 -1.583689 -0.697595 -7.125000 0.000000 0.000000 64.584233 -15.012856 50.209054 -23.919847 31.860631 -7.104040 0.757069 0.154751 -1.551695 7.125000 0.000000 0.000000 
-35.617855 18.017511 15.510917 -2.030468 69.469957 4.740733 -9.498219 -1.902851 -21.942790 -1.346897 9.412329 24.873346 1.502845 2.015058 13.301266 0.000600 0.154100 0.423500 12.487678 11.288973 -2.582916 2.463008 -5.430419 16.663978 4.529713 -14.953356 -7.319022 -0.137300 2.388100 -6.579500 4.072943 0.158739 5.390343 2.027463 0.883854 -1.340592 -2.112512 8.411120 0.580894 -2.152800 4.039900 0.344100 -84.936116 21.804947 27.625885 24.204310 -35.269528 -9.852895 0.538629 -1.581653 -0.712157 -7.125000 0.000000 0.000000 64.630715 -15.014917 50.171944 -23.954604 31.892964 -7.119401 0.752625 0.162755 -1.668867 7.125000 0.000000 0.000000 
-35.619295 18.028821 15.508963 -2.019149 69.325688 4.773205 -9.432452 -1.993652 -21.960873 -1.341824 9.414615 24.861563 1.446333 2.156061 13.321681 0.005100 0.459700 1.263100 12.439159 11.346319 -2.608186 2.469663 -5.416506 16.618120 4.515678 -14.901266 -7.182122 -0.139400 2.406500 -6.630600 4.066527 0.175969 5.388700 2.011135 0.891947 -1.331171 -2.215881 8.412504 0.565122 -2.197300 4.040300 0.346000 -84.884169 21.757642 27.659260 24.233890 -35.295544 -9.875305 0.542221 -1.597898 -0.753938 -7.125000 0.000000 0.000000 64.692137 -15.037124 50.111872 -23.981705 31.920894 -7.136871 0.758147 0.163727 -1.695129 7.125000 0.000000 0.000000 
-35.621249 18.031495 15.506495 -1.987794 69.176055 4.822692 -9.412438 -2.001313 -21.986933 -1.334680 9.421341 24.869165 1.409114 2.243931 13.296181 0.007900 0.574100 1.577600 12.383554 11.401751 -2.631515 2.475395 -5.404330 16.576867 4.500243 -14.845866 -7.046471 -0.142500 2.432400 -6.702200 4.062534 0.191360 5.381844 2.003381 0.898851 -1.333839 -2.309438 8.427745 0.553162 -2.235200 4.048000 0.346900 -84.855988 21.721099 27.683608 24.256034 -35.314073 -9.890658 0.544026 -1.604712 -0.778282 -7.125000 0.000000 0.000000 64.742484 -15.057924 50.064260 -24.004447 31.942906 -7.148374 0.757244 0.166425 -1.759434 7.125000 0.000000 0.000000 
-35.623305 18.033860 15.504028 -1.961079 69.027949 4.866180 -9.392686 -2.007957 -22.006197 -1.329901 9.424631 24.865641 1.370839 2.335300 13.270165 0.010900 0.673000 1.849500 12.327590 11.452143 -2.634450 2.487547 -5.375056 16.487532 4.490683 -14.804221 -6.880590 -0.145400 2.457500 -6.771900 4.059330 0.206900 5.373341 1.996857 0.906028 -1.342935 -2.408541 8.441998 0.551645 -2.275800 4.055300 0.351800 -84.822261 21.690524 27.716655 24.282879 -35.336894 -9.908330 0.544915 -1.611136 -0.803840 -7.125000 0.000000 0.000000 64.791040 -15.085733 50.022549 -24.027695 31.965605 -7.160188 0.756466 0.168317 -1.808849 7.125000 0.000000 0.000000 
-35.625156 18.035402 15.501765 -1.937063 68.892310 4.894011 -9.378541 -2.009308 -22.021774 -1.321366 9.433196 24.880886 1.336739 2.411762 13.221812 0.013200 0.742600 2.040900 12.282861 11.498725 -2.652345 2.490257 -5.370449 16.469385 4.469218 -14.737163 -6.769505 -0.147600 2.475500 -6.821800 4.057234 0.217960 5.366415 1.990972 0.910743 -1.355552 -2.512526 8.455045 0.555812 -2.318900 4.062200 0.358900 -84.783542 21.662177 27.757543 24.312679 -35.362457 -9.927414 0.545263 -1.617084 -0.831410 -7.125000 0.000000 0.000000 64.837208 -15.116737 49.987283 -24.052519 31.990041 -7.173008 0.756095 0.169927 -1.842569 7.125000 0.000000 0.000000 
-35.627213 18.036019 15.499709 -1.920537 68.771010 4.903626 -9.367197 -2.005004 -22.029174 -1.312545 9.441965 24.900716 1.310590 2.467963 13.167473 0.014800 0.785400 2.158600 12.248944 11.544136 -2.666365 2.489895 -5.374297 16.476168 4.445752 -14.668141 -6.685106 -0.149300 2.490200 -6.862500 4.056909 0.224210 5.359003 1.985930 0.913087 -1.376160 -2.613291 8.467337 0.561625 -2.360900 4.068700 0.365400 -84.739747 21.638122 27.804329 24.344183 -35.389774 -9.947265 0.545097 -1.621777 -0.856545 -7.125000 0.000000 0.000000 64.882567 -15.151115 49.957401 -24.077275 32.014628 -7.186191 0.756535 0.171651 -1.861652 7.125000 0.000000 0.000000 
-35.629166 18.035608 15.497858 -1.900736 68.665063 4.903463 -9.361918 -1.996042 -22.025940 -1.303891 9.450852 24.923911 1.290550 2.508025 13.106942 0.015400 0.801700 2.203400 12.221910 11.591666 -2.674361 2.485791 -5.387687 16.510409 4.421411 -14.599143 -6.623967 -0.151500 2.508300 -6.912600 4.057007 0.224182 5.354542 1.981496 0.912361 -1.398468 -2.710257 8.479491 0.566956 -2.401400 4.075300 0.370900 -84.691211 21.613342 27.854957 24.375937 -35.417201 -9.966789 0.544387 -1.625049 -0.881256 -7.125000 0.000000 0.000000 64.928026 -15.185253 49.931387 -24.100272 32.037132 -7.197920 0.756368 0.172915 -1.871680 7.125000 0.000000 0.000000 
-35.631223 18.034066 15.496213 -1.874405 68.568654 4.900759 -9.367316 -1.968079 -22.017860 -1.296236 9.458850 24.948249 1.280899 2.522934 13.045538 0.014700 0.782600 2.150700 12.197743 11.651488 -2.677031 2.478201 -5.410104 16.570407 4.395846 -14.528212 -6.577703 -0.154400 2.531700 -6.977700 4.056514 0.219621 5.349835 1.976977 0.909388 -1.426392 -2.807698 8.490749 0.582222 -2.442300 4.081500 0.379500 -84.638831 21.592338 27.903931 24.408374 -35.445745 -9.987048 0.543707 -1.627390 -0.903202 -7.125000 0.000000 0.000000 64.973782 -15.220572 49.911468 -24.118910 32.055430 -7.206945 0.755470 0.173407 -1.878505 7.125000 0.000000 0.000000 
-35.633382 18.032523 15.494979 -1.841346 68.473978 4.899563 -9.374896 -1.935337 -22.004743 -1.289517 9.464831 24.968487 1.272083 2.537273 12.994254 0.014100 0.767700 2.109800 12.172127 11.732673 -2.675907 2.467628 -5.441283 16.654101 4.365982 -14.446282 -6.535013 -0.158000 2.561300 -7.059600 4.053802 0.213222 5.351540 1.970076 0.905503 -1.443366 -2.897117 8.504050 0.591555 -2.479900 4.088700 0.385700 -84.578899 21.561167 27.949030 24.439689 -35.472298 -10.005730 0.542194 -1.627247 -0.922876 -7.125000 0.000000 0.000000 65.022847 -15.245629 49.892257 -24.137970 32.074028 -7.216424 0.755649 0.174639 -1.875285 7.125000 0.000000 0.000000 
-35.635953 18.031289 15.494156 -1.796077 68.371900 4.910335 -9.384522 -1.897039 -21.991669 -1.284563 9.467621 24.980235 1.262828 2.554770 12.955643 0.013800 0.758200 2.083800 12.137223 11.843029 -2.676846 2.454371 -5.480578 16.759195 4.329210 -14.345062 -6.479239 -0.163200 2.603000 -7.175500 4.048532 0.208546 5.354893 1.961696 0.902212 -1.456205 -2.986153 8.519054 0.607027 -2.517400 4.096900 0.394100 -84.514025 21.526987 27.987519 24.469553 -35.497687 -10.024287 0.541072 -1.628348 -0.942322 -7.125000 0.000000 0.000000 65.073498 -15.265029 49.877152 -24.155769 32.091175 -7.225172 0.756027 0.176257 -1.871334 7.125000 0.000000 0.000000 
-35.639140 18.030158 15.493539 -1.740142 68.281986 4.930935 -9.394415 -1.863455 -21.976829 -1.282136 9.467054 24.982779 1.255570 2.569591 12.933725 0.013600 0.751800 2.066200 12.096093 11.984715 -2.673396 2.439007 -5.526957 16.884237 4.281463 -14.215075 -6.419479 -0.168100 2.641200 -7.281400 4.041946 0.197407 5.359048 1.952840 0.895878 -1.465944 -3.078719 8.534428 0.626724 -2.556400 4.105300 0.404000 -84.446014 21.488458 28.016628 24.497624 -35.521437 -10.042298 0.540443 -1.630632 -0.960022 -7.125000 0.000000 0.000000 65.125231 -15.278276 49.865178 -24.168592 32.103213 -7.230453 0.755305 0.176933 -1.881616 7.125000 0.000000 0.000000 
